<svg width="546" height="308" viewBox="0 0 546 308" fill="none" xmlns="http://www.w3.org/2000/svg">
<g clip-path="url(#clip0_129_4953)">
<path fill-rule="evenodd" clip-rule="evenodd" d="M118.534 4.66124C118.949 4.06614 119.55 4.28254 119.176 1.70738C117.777 -2.51026 119.559 2.4994 119.393 1.78312C119.187 3.02742 118.423 2.4215 117.955 2.35442C118.099 2.91273 118.292 3.81295 118.534 4.66124Z" fill="#1A1A1A"/>
<path fill-rule="evenodd" clip-rule="evenodd" d="M29.6831 262.734C26.4475 257.356 23.8081 251.442 21.2187 246.166C19.8414 248.291 15.8943 271.543 10.4414 308H22.2392C25.8121 281.238 28.4689 264.642 29.6831 262.734Z" fill="#1A1A1A"/>
<path fill-rule="evenodd" clip-rule="evenodd" d="M19.5805 247.309C16.9651 242.316 14.5346 237.562 12.0758 233.95C10.7376 235.887 5.96145 264.387 -0.605469 308H10.0587C14.8305 272.201 18.2989 249.358 19.5805 247.309Z" fill="#1A1A1A"/>
<path fill-rule="evenodd" clip-rule="evenodd" d="M10.8977 232.5C8.69354 229.36 6.58943 226.378 4.51142 223.543C2.05046 237.772 -0.440967 251.812 -2.8323 265.765C-5.26498 279.935 -7.66502 294.034 -10.002 307.97L-9.84529 307.998H-0.258189C3.31467 283.201 7.10947 257.949 10.8977 232.498V232.5Z" fill="#1A1A1A"/>
<path fill-rule="evenodd" clip-rule="evenodd" d="M3.64789 222.068C1.80706 219.131 0.0510921 216.519 -1.62001 214.059C-4.78815 229.678 -7.95194 245.127 -10.9982 260.279C-14.0728 275.585 -17.0908 290.716 -20 305.553V306.161C-17.2366 306.682 -14.397 307.199 -11.4813 307.671C-9.103 293.625 -6.58764 279.357 -4.05051 264.967C-1.55691 250.818 1.09771 236.534 3.64789 222.068Z" fill="#1A1A1A"/>
<path fill-rule="evenodd" clip-rule="evenodd" d="M120.499 308C114.226 301.906 108.264 296.236 102.607 290.45C99.1254 296.169 95.4851 302.07 91.8535 308H120.499Z" fill="#1A1A1A"/>
<path fill-rule="evenodd" clip-rule="evenodd" d="M99.3774 287.526C92.9019 280.723 86.8942 275.083 81.2411 269.875C74.8548 278.673 68.9363 287.215 62.6914 296.682C65.4831 300.101 68.3336 303.94 71.3168 308.002H86.5743C90.8739 300.976 95.1387 294.183 99.3774 287.526Z" fill="#1A1A1A"/>
<path fill-rule="evenodd" clip-rule="evenodd" d="M78.5929 267.085C72.9921 262.086 68.0592 257.334 63.2701 252.762C57.6714 260.264 51.927 268.267 46.3262 276.161C50.6019 281.625 55.3214 287.213 60.1759 293.386C66.3468 284.464 72.2566 275.815 78.5929 267.085Z" fill="#1A1A1A"/>
<path fill-rule="evenodd" clip-rule="evenodd" d="M60.951 250.658C56.5338 246.791 52.2995 242.866 48.335 239.219C43.3717 245.791 38.2235 252.175 33.0078 258.985C36.6394 263.467 40.3428 268.197 44.2899 273.519C49.8494 265.856 55.4698 257.951 60.9531 250.658H60.951Z" fill="#1A1A1A"/>
<path fill-rule="evenodd" clip-rule="evenodd" d="M34.5747 225.805C31.5349 222.795 28.543 220.109 25.6534 217.512C21.5562 222.362 17.0803 227.696 12.9961 232.853C15.3113 235.965 17.9985 239.289 20.6771 243.076C25.3292 236.986 29.8725 231.676 34.5747 225.805Z" fill="#1A1A1A"/>
<path fill-rule="evenodd" clip-rule="evenodd" d="M23.9731 216.621C21.3903 214.093 18.777 211.799 16.5053 209.237C12.8411 213.559 8.99842 218.012 5.42773 222.334C7.37518 225.253 9.54675 228.179 11.8141 231.297C15.7764 226.441 19.9999 221.375 23.9731 216.621Z" fill="#1A1A1A"/>
<path fill-rule="evenodd" clip-rule="evenodd" d="M14.8607 207.762C12.7609 205.44 10.7482 203.325 8.82034 201.224C5.4716 205.035 2.01842 209.062 -1.15625 212.817C0.382125 215.225 2.19902 217.666 4.10295 220.354C7.67145 216.078 11.4467 211.795 14.8629 207.762H14.8607Z" fill="#1A1A1A"/>
<path fill-rule="evenodd" clip-rule="evenodd" d="M7.609 200.053C5.7747 198.253 4.14276 196.379 2.39985 194.641C-0.500649 197.907 -3.55999 201.252 -6.46484 204.518C-5.24198 206.87 -3.8124 209.181 -2.49814 211.667C0.870179 207.885 4.38429 203.875 7.609 200.053Z" fill="#1A1A1A"/>
<path fill-rule="evenodd" clip-rule="evenodd" d="M1.72202 193.732C0.187995 192.079 -1.20894 190.159 -2.41223 188.45C-5.11254 191.362 -7.65184 194.232 -10.5371 197.333C-9.35123 199.423 -8.1523 201.399 -6.88374 203.546C-4.04852 200.382 -1.11756 197.099 1.72419 193.732H1.72202Z" fill="#1A1A1A"/>
<path fill-rule="evenodd" clip-rule="evenodd" d="M6.4502 132.238C8.22575 131.283 9.8925 130.385 11.7203 129.654C11.7181 129.916 11.7725 130.074 11.9379 130.056C9.99695 130.965 7.9407 132.168 6.32617 133.032C6.3327 132.679 6.3327 132.577 6.4502 132.238Z" fill="#1A1A1A"/>
<path fill-rule="evenodd" clip-rule="evenodd" d="M184.989 297.92C174.029 290.543 164.54 283.556 154.637 277.133C148.732 287.152 142.594 297.057 136.395 308.002H179.595C181.377 304.605 183.175 301.244 184.989 297.92Z" fill="#1A1A1A"/>
<path fill-rule="evenodd" clip-rule="evenodd" d="M150.199 274.287C141.488 268.148 133.342 262.268 125.802 256.88C119.479 266.291 113.217 275.668 106.98 285.624C114.3 292.4 121.792 299.943 130.354 307.269C136.919 295.732 143.743 284.964 150.199 274.287Z" fill="#1A1A1A"/>
<path fill-rule="evenodd" clip-rule="evenodd" d="M122.194 254.367C114.97 250.187 108.577 245.575 102.36 241.282C96.6247 248.96 90.6997 257.01 84.9727 265.408C90.8041 270.872 96.7857 276.449 103.49 282.846C109.878 272.826 115.849 263.387 122.194 254.367Z" fill="#1A1A1A"/>
<path fill-rule="evenodd" clip-rule="evenodd" d="M99.5306 238.999C93.5425 235.143 88.0831 231.234 82.8239 227.952C77.5603 234.524 71.9595 241.974 66.6133 249.574C71.5091 253.874 76.727 258.07 82.3582 262.887C87.8698 254.863 93.7557 246.889 99.5306 238.999Z" fill="#1A1A1A"/>
<path fill-rule="evenodd" clip-rule="evenodd" d="M80.3163 226.35C75.3074 223.379 70.7815 220.215 66.2925 217.631C61.301 223.498 56.5161 229.598 51.418 236.153C55.426 239.646 59.8366 243.208 64.2624 247.166C69.5543 240.226 75.0397 232.875 80.3163 226.35Z" fill="#1A1A1A"/>
<path fill-rule="evenodd" clip-rule="evenodd" d="M20.6178 126.308C19.4537 126.189 18.4006 126.064 17.4606 125.882C15.5327 127.78 13.7637 129.55 11.875 131.35C12.8172 131.48 13.7049 131.787 14.7059 132.021C16.6511 130.186 18.529 128.277 20.6178 126.308Z" fill="#1A1A1A"/>
<path fill-rule="evenodd" clip-rule="evenodd" d="M50.5964 207.045C47.0518 204.926 43.8423 202.682 40.5436 200.622C36.4573 205.478 32.249 210.358 28.1191 215.32C31.0632 217.69 34.116 220.312 37.4016 222.948C41.7513 217.599 46.114 212.366 50.5964 207.045Z" fill="#1A1A1A"/>
<path fill-rule="evenodd" clip-rule="evenodd" d="M38.7022 199.962C35.7625 197.9 32.7968 196.043 29.9768 194.146C26.467 198.19 22.7963 202.421 19.2734 206.692C21.6713 209.084 24.2193 211.349 26.8696 213.814C30.7623 209.315 34.7268 204.63 38.7022 199.962Z" fill="#1A1A1A"/>
<path fill-rule="evenodd" clip-rule="evenodd" d="M28.221 193.022C25.5729 191.415 23.4405 189.534 21.0862 188.002C17.7418 191.733 14.3669 195.424 11.2031 199.105C13.131 201.122 15.2699 203.092 17.5633 205.301C21.208 200.86 24.7656 196.866 28.2188 193.022H28.221Z" fill="#1A1A1A"/>
<path fill-rule="evenodd" clip-rule="evenodd" d="M19.7541 186.978C17.5477 185.433 15.5436 183.866 13.4374 182.657C10.5151 185.821 7.44488 189.114 4.33984 192.817C6.01965 194.561 7.77997 196.264 9.74482 198.246C12.9717 194.593 16.4097 190.625 19.7541 186.978Z" fill="#1A1A1A"/>
<path fill-rule="evenodd" clip-rule="evenodd" d="M12.6934 181.993C10.8482 180.528 9.07699 179.294 7.5582 177.875C4.88182 180.772 2.12058 183.776 -0.544922 186.598C0.84549 188.238 2.24678 190.051 3.90918 191.828C6.82274 188.42 9.76893 185.206 12.6934 181.99V181.993Z" fill="#1A1A1A"/>
<path fill-rule="evenodd" clip-rule="evenodd" d="M6.47192 176.902C4.85086 175.846 3.54313 174.438 2.24194 173.228C-0.310418 175.885 -2.88671 178.681 -5.42383 181.527C-4.06388 182.76 -3.00638 184.407 -1.75523 185.907C0.912448 182.949 3.79772 179.824 6.47192 176.905V176.902Z" fill="#1A1A1A"/>
<path fill-rule="evenodd" clip-rule="evenodd" d="M1.52903 172.847C0.116862 171.819 -0.805728 170.449 -1.96332 169.274C-4.14794 171.547 -6.40872 173.966 -8.50195 176.273C-7.47057 177.563 -6.55886 179.004 -5.51877 180.493C-3.17095 177.937 -0.840542 175.375 1.52903 172.847Z" fill="#1A1A1A"/>
<path fill-rule="evenodd" clip-rule="evenodd" d="M366.163 194.215C348.294 190.453 331.874 186.747 316.41 183.219C310.45 192.83 304.366 202.007 298.67 211.855C313.671 216.03 330.221 221.41 348.546 226.889C354.508 215.547 360.288 204.818 366.165 194.215H366.163Z" fill="#1A1A1A"/>
<path fill-rule="evenodd" clip-rule="evenodd" d="M263.112 183.362C250.638 180.597 239.663 177.87 228.739 175.808C223.382 183.061 217.549 190.575 211.732 198.452C222.39 201.689 233.576 205.164 245.598 209.01C251.199 200.371 257.296 191.499 263.112 183.36V183.362Z" fill="#1A1A1A"/>
<path fill-rule="evenodd" clip-rule="evenodd" d="M248.437 126.906C238.502 126.507 229.206 125.906 220.237 125.43C215.191 130.939 210.252 136.312 205.504 141.896C214.203 142.685 223.442 143.69 233.271 145.126C238.175 138.834 243.071 132.74 248.437 126.906Z" fill="#1A1A1A"/>
<path fill-rule="evenodd" clip-rule="evenodd" d="M301.225 308C288.489 301.246 276.571 294.858 265.348 288.701C262.141 295.005 258.927 301.434 255.75 308H301.222H301.225Z" fill="#1A1A1A"/>
<path fill-rule="evenodd" clip-rule="evenodd" d="M257.722 284.748C243.1 276.973 230.217 269.476 217.612 262.768C210.999 274.207 204.225 286.509 197.484 298.788C201.61 301.839 205.809 304.899 210.116 308H246.373C250.213 300.054 253.989 292.33 257.722 284.748Z" fill="#1A1A1A"/>
<path fill-rule="evenodd" clip-rule="evenodd" d="M211.781 259.758C200.368 254.157 189.832 248.955 180.154 243.798C173.917 253.266 167.274 263.428 161.275 273.913C170.704 280.444 180.846 287.145 191.997 294.365C198.44 282.272 205.166 271.039 211.781 259.758Z" fill="#1A1A1A"/>
<path fill-rule="evenodd" clip-rule="evenodd" d="M174.856 242.361C165.427 237.54 156.835 233.325 148.688 229.297C143.072 237.278 137.147 245.536 131.191 253.935C139.014 259.262 147.578 265.135 156.597 271.314C162.786 260.892 168.754 251.673 174.856 242.359V242.361Z" fill="#1A1A1A"/>
<path fill-rule="evenodd" clip-rule="evenodd" d="M143.664 226.361C136.135 222.89 129.027 219.505 122.294 216.138C116.922 223.022 111.526 230.286 106.123 237.75C112.496 242.162 119.166 246.378 126.446 250.587C132.088 242.606 137.922 234.439 143.664 226.363V226.361Z" fill="#1A1A1A"/>
<path fill-rule="evenodd" clip-rule="evenodd" d="M118.401 214.167C112.282 210.709 106.425 208.157 100.613 205.63C95.5559 212.066 90.3664 218.642 85.0332 225.288C90.5296 228.371 96.2762 231.951 102.068 235.926C107.434 228.57 113.039 221.198 118.401 214.167Z" fill="#1A1A1A"/>
<path fill-rule="evenodd" clip-rule="evenodd" d="M98.0702 204.922C92.9067 202.423 87.8085 200.073 82.8452 197.993C78.4499 203.537 73.8 209.062 69.2109 214.589C73.7173 217.378 78.4891 220.382 83.3283 223.602C88.3068 217.274 93.3332 210.943 98.068 204.922H98.0702Z" fill="#1A1A1A"/>
<path fill-rule="evenodd" clip-rule="evenodd" d="M65.2671 189.716C61.1655 188.227 57.584 186.558 54.0264 184.916C50.1989 189.227 46.2192 193.754 42.5527 198.019C45.784 200.103 48.926 202.347 52.7817 204.323C56.8246 199.46 61.0023 194.548 65.2671 189.714V189.716Z" fill="#1A1A1A"/>
<path fill-rule="evenodd" clip-rule="evenodd" d="M52.1363 184.146C48.681 182.51 45.5607 180.88 42.4905 179.675C38.9263 183.542 35.6276 187.307 31.9395 191.488C34.7507 193.317 37.6447 195.082 40.6366 197.106C44.5554 192.715 48.2371 188.394 52.1363 184.146Z" fill="#1A1A1A"/>
<path fill-rule="evenodd" clip-rule="evenodd" d="M40.9598 179.073C38.1594 177.755 35.6179 176.388 32.9807 175.245C29.632 178.829 26.305 182.345 23.3262 185.894C25.4999 187.496 28.0566 189.03 30.5763 190.677C34.1535 186.719 37.5763 182.884 40.9576 179.073H40.9598Z" fill="#1A1A1A"/>
<path fill-rule="evenodd" clip-rule="evenodd" d="M31.0607 174.745C28.5061 173.598 26.2149 172.519 23.9955 171.281C21.3408 174.148 18.1901 177.517 15.4941 180.601C17.4177 181.993 19.6023 183.378 21.8108 184.946C24.7962 181.482 28.0035 178.069 31.0607 174.745Z" fill="#1A1A1A"/>
<path fill-rule="evenodd" clip-rule="evenodd" d="M22.7668 170.655C20.6343 169.707 18.5085 168.77 16.6372 167.816C14.0348 170.577 11.5325 173.308 8.94531 176.007C10.5838 177.244 12.4747 178.387 14.2589 179.915C17.0767 176.734 19.8119 173.696 22.7668 170.657V170.655Z" fill="#1A1A1A"/>
<path fill-rule="evenodd" clip-rule="evenodd" d="M16.0921 167.288C14.2317 166.403 12.6215 165.414 10.8438 164.613C8.59171 166.92 6.2069 169.458 3.80469 171.951C5.28866 173.064 6.72259 174.319 8.34365 175.598C10.8677 172.821 13.4897 170.106 16.0921 167.288Z" fill="#1A1A1A"/>
<path fill-rule="evenodd" clip-rule="evenodd" d="M10.0753 163.834C8.66098 162.789 7.25751 161.807 5.8584 161.069C3.55192 163.488 1.46522 165.687 -0.636719 167.929C0.46212 169.11 1.68716 170.207 2.97966 171.376C5.38187 168.796 7.7645 166.338 10.0753 163.832V163.834Z" fill="#1A1A1A"/>
<path fill-rule="evenodd" clip-rule="evenodd" d="M5.04479 160.541C3.77188 159.848 2.56424 159.121 1.53503 158.212C-0.418942 160.279 -2.2032 162.149 -4.30078 164.386C-3.3956 165.393 -2.48389 166.375 -1.45033 167.39C0.649434 165.209 2.73396 163.062 5.04479 160.541Z" fill="#1A1A1A"/>
<path fill-rule="evenodd" clip-rule="evenodd" d="M199.909 152.941C191.592 151.798 183.668 150.822 175.976 149.619C171.178 155.373 166.345 160.922 161.258 166.697C168.588 168.243 176.391 169.701 184.703 171.753C189.808 165.317 194.926 159.121 199.911 152.941H199.909Z" fill="#1A1A1A"/>
<path fill-rule="evenodd" clip-rule="evenodd" d="M45.5792 123.316C43.3162 123.333 41.1708 123.337 39.1428 123.372C36.7667 125.752 34.3166 128.074 32.0254 130.385C34.0055 130.351 35.7223 130.682 37.8895 130.76C40.3918 128.26 42.9354 125.767 45.5814 123.313L45.5792 123.316Z" fill="#1A1A1A"/>
<path fill-rule="evenodd" clip-rule="evenodd" d="M45.2226 115.921C43.1707 116.17 41.2254 116.359 39.3411 116.512C37.0346 118.676 34.8304 120.756 32.6719 122.799C34.4061 122.809 36.1969 122.788 38.0442 122.714C40.3594 120.511 42.8204 118.187 45.2226 115.921Z" fill="#1A1A1A"/>
<path fill-rule="evenodd" clip-rule="evenodd" d="M439.331 308C433.267 305.444 427.342 302.927 421.563 300.441C420.592 302.923 419.639 305.444 418.699 308H439.333H439.331Z" fill="#1A1A1A"/>
<path fill-rule="evenodd" clip-rule="evenodd" d="M195.446 98.6372C188.274 99.0116 181.463 99.3405 174.977 99.6478C170.978 103.612 167.02 107.633 162.938 111.472C169.426 111.511 175.919 111.42 182.904 111.325C186.955 107.031 191.244 102.833 195.444 98.6372H195.446Z" fill="#1A1A1A"/>
<path fill-rule="evenodd" clip-rule="evenodd" d="M334.708 263.926C316.456 256.469 299.719 249.875 283.791 243.779C277.586 255.239 270.943 267.555 264.885 280.749C280.521 288.916 296.899 297.208 315.209 306.08C321.4 291.744 328.087 277.539 334.706 263.926H334.708Z" fill="#1A1A1A"/>
<path fill-rule="evenodd" clip-rule="evenodd" d="M231.371 223.295C219.823 219.006 208.83 215.191 198.638 211.436C192.702 219.921 186.653 228.917 180.77 238.012C190.511 242.994 201.241 248.053 212.205 253.171C218.594 243.152 224.969 232.838 231.368 223.297L231.371 223.295Z" fill="#1A1A1A"/>
<path fill-rule="evenodd" clip-rule="evenodd" d="M161.293 199.235C153.314 196.537 146.034 194.072 139.101 191.534C134.075 197.718 128.815 204.438 123.77 211.345C130.371 214.531 137.597 217.911 144.893 221.403C150.168 213.73 155.849 206.21 161.295 199.235H161.293Z" fill="#1A1A1A"/>
<path fill-rule="evenodd" clip-rule="evenodd" d="M135.141 190.306C128.532 188.09 122.342 186.132 116.408 184.342C111.438 190.205 106.614 196.156 101.645 202.074C107.289 204.483 113.04 206.902 119.261 209.912C124.651 203 129.814 196.344 135.141 190.306Z" fill="#1A1A1A"/>
<path fill-rule="evenodd" clip-rule="evenodd" d="M113.852 183.691C108.351 181.919 103.014 180.175 97.7761 178.402C93.4134 183.57 89.0485 188.649 84.5879 193.918C89.4119 196.076 94.5057 198.497 99.6888 200.83C104.541 194.985 109.332 189.209 113.85 183.689L113.852 183.691Z" fill="#1A1A1A"/>
<path fill-rule="evenodd" clip-rule="evenodd" d="M94.3162 177.353C89.6228 175.94 85.025 174.581 80.8255 173.228C76.4389 178.112 72.2742 182.657 68.166 187.541C72.1044 189.092 76.3431 190.852 80.9844 193.068C85.3623 187.508 89.9753 182.3 94.3162 177.353Z" fill="#1A1A1A"/>
<path fill-rule="evenodd" clip-rule="evenodd" d="M78.7669 172.791C74.4999 171.616 70.6768 170.27 66.8342 169.167C63.0698 173.228 59.2315 177.595 55.6543 181.826C59.1249 183.343 62.6934 185.029 66.8363 186.433C70.6834 182.042 74.7676 177.288 78.7647 172.791H78.7669Z" fill="#1A1A1A"/>
<path fill-rule="evenodd" clip-rule="evenodd" d="M64.7893 168.509C61.112 167.52 57.6501 166.663 54.3819 165.708C50.9331 169.467 47.3841 173.166 44.1094 176.847C47.1013 177.983 50.3804 179.322 53.6355 180.93C57.2759 176.669 61.0228 172.616 64.7893 168.509Z" fill="#1A1A1A"/>
<path fill-rule="evenodd" clip-rule="evenodd" d="M52.876 165.236C49.7601 164.379 46.7791 163.471 43.9265 162.475C40.7388 165.905 37.5206 169.324 34.5156 172.659C37.0266 173.862 39.7988 175.057 42.6449 176.175C46.0502 172.574 49.4163 168.872 52.8782 165.236H52.876Z" fill="#1A1A1A"/>
<path fill-rule="evenodd" clip-rule="evenodd" d="M41.97 162.131C39.211 161.296 36.7609 160.355 34.3935 159.61C31.4625 162.547 28.5772 165.557 25.7246 168.476C27.8244 169.777 30.2309 170.952 32.8355 172.004C35.9057 168.641 38.8911 165.399 41.9722 162.131H41.97Z" fill="#1A1A1A"/>
<path fill-rule="evenodd" clip-rule="evenodd" d="M32.652 159.468C30.3586 158.678 28.0782 158.013 25.8675 157.405C23.45 159.933 20.7823 162.694 18.3301 165.38C20.3167 166.198 22.2554 167.128 24.3835 168.037C27.0599 165.23 29.8363 162.408 32.652 159.465V159.468Z" fill="#1A1A1A"/>
<path fill-rule="evenodd" clip-rule="evenodd" d="M25.2652 156.944C23.3569 156.165 21.4639 155.444 19.5186 154.804C17.2078 157.195 14.712 159.87 12.4316 162.285C14.1506 163.148 15.8174 164.068 17.6125 164.955C20.1235 162.298 22.7368 159.684 25.2674 156.946L25.2652 156.944Z" fill="#1A1A1A"/>
<path fill-rule="evenodd" clip-rule="evenodd" d="M18.6343 154.265C16.8783 153.611 15.303 153.034 13.6754 152.538C11.419 154.769 9.20823 156.95 7.04102 159.275C8.49453 159.974 9.898 160.82 11.3667 161.746C13.7668 159.288 16.1494 156.743 18.6321 154.265H18.6343Z" fill="#1A1A1A"/>
<path fill-rule="evenodd" clip-rule="evenodd" d="M146.465 146.592C140.233 145.956 134.234 145.473 128.481 144.843C124.227 149.42 119.888 154.107 115.561 158.73C121.111 159.66 126.653 160.775 132.877 162.034C137.415 156.786 141.907 151.567 146.465 146.592Z" fill="#1A1A1A"/>
<path fill-rule="evenodd" clip-rule="evenodd" d="M125.866 144.428C120.442 143.746 115.141 143.285 110.38 142.651C106.211 146.927 102.088 151.3 98.2168 155.583C102.93 156.496 107.793 157.418 113.046 158.258C117.215 153.772 121.61 148.989 125.866 144.428Z" fill="#1A1A1A"/>
<path fill-rule="evenodd" clip-rule="evenodd" d="M108.018 142.389C103.07 141.913 98.633 141.491 94.329 141.078C90.6016 144.86 86.6915 148.916 82.9707 152.8C87.1093 153.579 91.3893 154.367 95.8957 155.321C99.8167 150.902 103.953 146.54 108.018 142.389Z" fill="#1A1A1A"/>
<path fill-rule="evenodd" clip-rule="evenodd" d="M92.2986 140.844C88.086 140.442 84.0867 140.197 80.2679 139.844C76.7712 143.372 73.0526 147.273 69.6777 150.744C73.3137 151.357 77.1259 151.811 81.0317 152.426C84.598 148.706 88.5734 144.65 92.3008 140.844H92.2986Z" fill="#1A1A1A"/>
<path fill-rule="evenodd" clip-rule="evenodd" d="M78.4002 139.708C74.7142 139.299 71.2697 138.799 67.8122 138.663C64.5636 141.893 61.2366 145.256 57.9531 148.732C61.0516 149.266 64.3503 149.879 67.908 150.539C71.3307 146.886 74.9601 143.229 78.4002 139.708Z" fill="#1A1A1A"/>
<path fill-rule="evenodd" clip-rule="evenodd" d="M66.2092 138.606C62.9889 138.299 60.0187 138.015 57.0051 137.816C53.8348 140.878 50.6492 144.029 47.8945 146.955C50.5361 147.483 53.3648 148.028 56.4894 148.42C59.6684 145.029 62.8322 141.826 66.2071 138.606H66.2092Z" fill="#1A1A1A"/>
<path fill-rule="evenodd" clip-rule="evenodd" d="M55.6498 137.715C52.7623 137.42 49.9489 137.232 47.4291 136.959C44.5156 139.794 41.6477 142.718 38.8125 145.542C41.1864 146.098 43.9085 146.382 46.4652 146.758C49.4549 143.8 52.4163 140.777 55.6498 137.717V137.715Z" fill="#1A1A1A"/>
<path fill-rule="evenodd" clip-rule="evenodd" d="M45.9789 137.005C43.4178 136.778 41.033 136.551 38.7722 136.341C36.296 138.903 33.6871 141.48 31.0586 143.991C33.2193 144.354 35.5105 144.906 37.693 145.393C40.415 142.564 43.1241 139.879 45.9789 137.005Z" fill="#1A1A1A"/>
<path fill-rule="evenodd" clip-rule="evenodd" d="M37.3857 136.191C35.1967 136.038 33.2406 135.782 31.2366 135.685C28.8496 137.951 26.4517 140.307 24.043 142.699C25.8925 143.04 27.6332 143.454 29.6046 143.778C32.1766 141.262 34.8464 138.689 37.3857 136.189V136.191Z" fill="#1A1A1A"/>
<path fill-rule="evenodd" clip-rule="evenodd" d="M30.0871 135.482C28.2028 135.255 26.5491 135.051 24.7909 134.897C22.5084 137.124 20.2128 139.282 17.9629 141.599C19.5078 141.974 21.1702 142.246 22.8957 142.684C25.25 140.275 27.7045 137.849 30.0893 135.482H30.0871Z" fill="#1A1A1A"/>
<path fill-rule="evenodd" clip-rule="evenodd" d="M24.0519 134.856C22.4635 134.594 21.1057 134.259 19.6957 133.993C17.6329 136.055 15.5049 138.145 13.5879 140.082C14.8325 140.452 16.2512 140.809 17.5611 141.246C19.6979 139.111 21.9369 136.942 24.0519 134.856Z" fill="#1A1A1A"/>
<path fill-rule="evenodd" clip-rule="evenodd" d="M18.797 133.811C17.561 133.566 16.2163 133.493 15.0979 133.192C13.1439 135.118 11.1769 137.027 9.37305 138.866C10.3805 139.206 11.3923 139.576 12.576 139.894C14.5474 137.964 16.6798 135.964 18.7991 133.811H18.797Z" fill="#1A1A1A"/>
<path fill-rule="evenodd" clip-rule="evenodd" d="M4.74541 134.971C4.36462 134.646 4.04476 134.142 3.77277 133.783C2.47375 135.157 1.17472 136.367 0.0911167 137.583C0.0715335 138.18 0.280422 138.708 0.543708 139.219C1.96676 137.81 3.27449 136.464 4.74323 134.971H4.74541Z" fill="#1A1A1A"/>
<path fill-rule="evenodd" clip-rule="evenodd" d="M30.0781 123.753C33.1853 123.095 36.2382 122.435 39.7436 121.742C40.5682 121.322 41.345 121.13 42.3373 120.76C38.6164 121.669 35.2307 122.389 31.9581 123.162C31.1922 123.679 30.6809 123.441 30.0781 123.753Z" fill="#1A1A1A"/>
<path fill-rule="evenodd" clip-rule="evenodd" d="M51.2324 120.284C55.6321 119.903 60.0841 119.914 64.9298 119.693C65.8394 119.609 66.8664 119.533 67.9282 119.21C62.8671 119.693 58.2302 119.585 53.7565 119.853C52.7033 120.245 51.9004 120.104 51.2324 120.286V120.284Z" fill="#1A1A1A"/>
<path fill-rule="evenodd" clip-rule="evenodd" d="M139.425 129.427C133.813 129.07 128.245 128.87 123.216 128.546C119.186 132.577 115.205 136.678 111.318 140.853C116.29 141.352 121.589 141.835 126.865 142.447C131.026 137.955 135.33 133.497 139.423 129.424L139.425 129.427Z" fill="#1A1A1A"/>
<path fill-rule="evenodd" clip-rule="evenodd" d="M120.772 128.405C115.75 128.325 110.982 128.223 106.506 128.031C102.875 131.757 98.8798 135.659 95.3613 139.379C99.5957 139.794 104.196 140.117 108.946 140.504C112.793 136.442 116.846 132.337 120.772 128.407V128.405Z" fill="#1A1A1A"/>
<path fill-rule="evenodd" clip-rule="evenodd" d="M104.35 128.014C99.9154 127.905 95.7485 127.912 91.6382 127.814C88.148 131.136 84.6665 134.67 81.2852 138.31C85.1452 138.52 89.138 138.799 93.3006 139.286C96.7646 135.583 100.705 131.664 104.352 128.011L104.35 128.014Z" fill="#1A1A1A"/>
<path fill-rule="evenodd" clip-rule="evenodd" d="M89.7236 127.695C85.8092 127.615 82.1602 127.685 78.6178 127.57C75.269 130.779 72.0117 133.977 68.8457 137.152C72.1814 137.299 75.6716 137.719 79.4098 138.124C82.8173 134.648 86.2966 131.058 89.7236 127.695Z" fill="#1A1A1A"/>
<path fill-rule="evenodd" clip-rule="evenodd" d="M76.9082 127.49C73.3985 127.557 70.3435 127.392 67.1427 127.423C63.9876 130.467 60.9196 133.398 57.9473 136.379C60.9 136.646 63.9811 136.897 67.245 137.1C70.4087 133.869 73.6269 130.814 76.9082 127.49Z" fill="#1A1A1A"/>
<path fill-rule="evenodd" clip-rule="evenodd" d="M65.6789 127.315C62.5456 127.28 59.706 127.269 56.8708 127.167C53.9638 129.972 51.1525 132.744 48.3281 135.572C50.8609 136.062 53.6091 136.185 56.4856 136.384C59.5711 133.322 62.4672 130.364 65.6811 127.315H65.6789Z" fill="#1A1A1A"/>
<path fill-rule="evenodd" clip-rule="evenodd" d="M55.548 127.2C52.9021 127.2 50.2126 127.319 47.9192 127.256C45.2646 129.738 42.5447 132.395 39.8574 134.94C42.1661 135.077 44.5422 135.269 47.051 135.566C49.7644 132.755 52.6953 130 55.548 127.2Z" fill="#1A1A1A"/>
<path fill-rule="evenodd" clip-rule="evenodd" d="M153.487 114.474C147.584 114.536 141.887 114.621 136.565 114.753C132.681 118.644 128.808 122.385 124.982 126.244C130.218 126.419 135.725 126.681 141.254 126.919C145.399 122.734 149.557 118.49 153.487 114.476V114.474Z" fill="#1A1A1A"/>
<path fill-rule="evenodd" clip-rule="evenodd" d="M134.078 114.928C128.882 114.945 123.854 115.172 119.176 115.326C115.498 118.899 111.795 122.471 108.229 126.02C112.778 125.975 117.655 126.049 122.568 126.276C126.323 122.329 130.162 118.63 134.078 114.928Z" fill="#1A1A1A"/>
<path fill-rule="evenodd" clip-rule="evenodd" d="M116.81 115.365C112.204 115.456 107.743 115.638 103.531 115.826C100.173 119.053 96.7548 122.381 93.332 125.88C97.3684 125.908 101.601 125.988 105.965 126.055C109.523 122.455 113.226 118.815 116.808 115.365H116.81Z" fill="#1A1A1A"/>
<path fill-rule="evenodd" clip-rule="evenodd" d="M101.596 115.848C97.4054 116.086 93.7869 116.159 89.9638 116.376C86.5694 119.529 83.4883 122.556 80.2266 125.707C83.8691 125.724 87.5746 125.685 91.5435 125.763C94.7508 122.413 98.1757 119.085 101.596 115.848Z" fill="#1A1A1A"/>
<path fill-rule="evenodd" clip-rule="evenodd" d="M88.0045 116.54C84.523 116.607 81.1134 116.705 77.7211 116.904C74.5791 119.931 71.572 122.805 68.6562 125.633C71.696 125.787 74.9664 125.808 78.5262 125.731C81.6748 122.567 84.8255 119.602 88.0045 116.54Z" fill="#1A1A1A"/>
<path fill-rule="evenodd" clip-rule="evenodd" d="M76.0541 116.956C72.7358 117.183 69.8179 117.308 67.0175 117.421C64.0517 120.152 61.0185 122.907 58.3008 125.577C61.0729 125.622 63.9712 125.713 67.1502 125.633C70.0681 122.816 73.023 119.948 76.0541 116.956Z" fill="#1A1A1A"/>
<path fill-rule="evenodd" clip-rule="evenodd" d="M65.2725 117.75C62.322 117.994 59.7109 118.13 57.0497 118.288C54.3363 120.855 51.4989 123.501 48.877 126.15C51.3814 125.958 54.0165 125.923 56.7668 125.81C59.4933 123.248 62.2045 120.688 65.2725 117.752V117.75Z" fill="#1A1A1A"/>
<path fill-rule="evenodd" clip-rule="evenodd" d="M146.591 102.448C141.188 102.756 136.075 102.965 131.131 103.368C127.467 106.861 123.929 110.241 120.352 113.881C125.23 113.552 130.108 113.517 135.396 113.363C138.988 109.717 142.74 106.077 146.589 102.448H146.591Z" fill="#1A1A1A"/>
<path fill-rule="evenodd" clip-rule="evenodd" d="M128.657 103.716C123.817 103.937 119.37 104.353 114.883 104.824C111.473 107.96 108.17 111.156 104.789 114.411C109.147 114.047 113.39 114.036 118.104 113.889C121.655 110.418 125.223 106.887 128.657 103.716Z" fill="#1A1A1A"/>
<path fill-rule="evenodd" clip-rule="evenodd" d="M112.811 105C108.551 105.328 104.602 105.748 100.602 106.181C97.3646 109.111 94.2378 112.162 90.9805 115.222C94.8362 114.831 98.6223 114.751 102.857 114.439C106.031 111.372 109.406 108.209 112.811 105Z" fill="#1A1A1A"/>
<path fill-rule="evenodd" clip-rule="evenodd" d="M98.6558 106.322C94.8871 106.657 91.3382 106.861 87.8154 107.196C84.7735 110.035 81.8207 112.842 78.8027 115.72C82.1928 115.545 85.5372 115.395 89.2907 115.227C92.498 112.206 95.4703 109.269 98.6558 106.322Z" fill="#1A1A1A"/>
<path fill-rule="evenodd" clip-rule="evenodd" d="M86.0622 107.408C82.881 107.618 79.7129 107.919 76.4534 108.38C73.592 110.992 70.7264 113.714 67.9434 116.32C70.907 116.177 73.9794 115.882 77.1388 115.802C80.2177 112.922 83.1791 110.191 86.0622 107.408Z" fill="#1A1A1A"/>
<path fill-rule="evenodd" clip-rule="evenodd" d="M66.7162 110.412C63.9179 110.758 61.2372 111.076 58.7762 111.292C56.2478 113.614 53.5497 116.075 50.9473 118.518C53.4213 118.297 55.9693 118.239 58.5108 118.081C61.0936 115.547 63.8853 112.987 66.7162 110.414V110.412Z" fill="#1A1A1A"/>
<path fill-rule="evenodd" clip-rule="evenodd" d="M57.2671 111.422C54.8693 111.632 52.5824 111.786 50.363 112.065C48.0391 114.303 45.6956 116.393 43.4609 118.579C45.4236 118.551 47.6648 118.39 49.8037 118.323C52.1929 116.097 54.7844 113.671 57.2671 111.422Z" fill="#1A1A1A"/>
<path fill-rule="evenodd" clip-rule="evenodd" d="M140.746 92.5435C135.885 93.1169 131.198 93.6687 126.474 94.2314C123.128 97.3432 119.862 100.36 116.424 103.524C121.059 102.922 125.408 102.66 130.367 102.126C133.755 98.8494 137.276 95.7635 140.746 92.5435Z" fill="#1A1A1A"/>
<path fill-rule="evenodd" clip-rule="evenodd" d="M124.304 94.4587C119.976 94.9305 115.628 95.5429 111.496 96.0601C108.43 98.9512 105.236 101.87 102.035 104.863C106.082 104.415 109.99 104.101 114.357 103.738C117.789 100.524 121.066 97.5359 124.304 94.4565V94.4587Z" fill="#1A1A1A"/>
<path fill-rule="evenodd" clip-rule="evenodd" d="M109.517 96.2915C105.674 96.7286 101.905 97.2458 98.041 97.8258C95.097 100.587 92.2836 103.115 89.209 105.943C92.7274 105.608 96.3199 105.324 100.099 105.073C103.239 102.063 106.486 99.0744 109.517 96.2915Z" fill="#1A1A1A"/>
<path fill-rule="evenodd" clip-rule="evenodd" d="M96.3587 98.0874C92.9468 98.6089 89.5372 99.059 86.2994 99.4962C83.4859 102.076 80.5441 104.664 77.748 107.204C80.9597 106.875 84.1213 106.529 87.4548 106.153C90.5381 103.363 93.456 100.723 96.3587 98.0874Z" fill="#1A1A1A"/>
<path fill-rule="evenodd" clip-rule="evenodd" d="M75.8652 101.717C72.9299 102.189 70.2122 102.513 67.6598 102.842C65.0226 105.255 62.3615 107.631 59.8613 110.061C62.3723 109.799 64.9421 109.54 67.7926 109.176C70.445 106.711 73.0866 104.292 75.8652 101.719V101.717Z" fill="#1A1A1A"/>
<path fill-rule="evenodd" clip-rule="evenodd" d="M65.7665 103.567C63.1685 103.913 60.8533 104.277 58.4924 104.714C56.038 106.9 53.6292 109.064 51.0508 111.392C53.2659 111.102 55.6616 110.92 58.0572 110.721C60.5661 108.324 63.1163 105.95 65.7687 103.565L65.7665 103.567Z" fill="#1A1A1A"/>
<path fill-rule="evenodd" clip-rule="evenodd" d="M151.175 81.0461C146.05 81.8489 141.211 82.5652 136.559 83.3681C133.217 86.1467 130.046 89.0031 126.617 92.1323C131.306 91.416 136.041 90.9053 140.878 90.2799C144.327 87.0945 147.732 84.0714 151.172 81.0439L151.175 81.0461Z" fill="#1A1A1A"/>
<path fill-rule="evenodd" clip-rule="evenodd" d="M134.351 83.5996C129.771 84.3873 125.397 85.0019 121.106 85.7441C118.134 88.4989 115.02 91.1563 111.865 94.0431C116.028 93.4415 120.325 92.9135 124.671 92.2534C127.854 89.3623 131.035 86.5448 134.351 83.5996Z" fill="#1A1A1A"/>
<path fill-rule="evenodd" clip-rule="evenodd" d="M146.215 73.3618C141.556 74.182 137.091 75.0822 132.726 75.8959C129.586 78.6723 126.516 81.3362 123.441 84.0087C127.56 83.3032 132.032 82.6216 136.723 81.8252C139.822 79.0704 143.055 76.2226 146.217 73.3618H146.215Z" fill="#1A1A1A"/>
<path fill-rule="evenodd" clip-rule="evenodd" d="M196.886 76.2769C190.184 77.2009 183.944 78.06 178.008 78.6767C174.059 82.0764 170.442 85.5647 166.943 88.8367C172.705 88.3541 178.841 87.6617 185.347 86.9627C189.049 83.4332 192.898 79.8561 196.884 76.279L196.886 76.2769Z" fill="#1A1A1A"/>
<path fill-rule="evenodd" clip-rule="evenodd" d="M16.034 142.24C14.611 141.848 13.3076 141.433 12.063 141.097C10.1308 143.006 8.13328 144.953 6.24023 147.096C7.20199 147.596 8.33565 148.197 9.5324 148.743C11.5995 146.659 13.8233 144.38 16.034 142.24Z" fill="#1A1A1A"/>
<path fill-rule="evenodd" clip-rule="evenodd" d="M21.364 143.586C19.695 143.194 18.148 142.768 16.6618 142.383C14.3923 144.677 12.2251 146.882 10.1602 148.977C11.3613 149.634 12.6842 150.249 14.129 150.879C16.479 148.442 18.9291 145.949 21.364 143.586Z" fill="#1A1A1A"/>
<path fill-rule="evenodd" clip-rule="evenodd" d="M27.5596 144.99C25.6448 144.65 23.904 144.178 22.2264 143.7C19.6806 146.273 17.2305 148.71 14.9414 151.09C16.5081 151.597 18.0834 152.192 19.9525 152.663C22.4657 150.097 25.079 147.517 27.5617 144.99H27.5596Z" fill="#1A1A1A"/>
<path fill-rule="evenodd" clip-rule="evenodd" d="M35.4684 146.568C33.2294 146.085 31.0557 145.574 28.8972 145.232C26.3579 147.749 23.6967 150.571 21.127 153.235C23.07 153.763 24.9653 154.535 26.9258 155.302C29.7153 152.302 32.6615 149.452 35.4684 146.565V146.568Z" fill="#1A1A1A"/>
<path fill-rule="evenodd" clip-rule="evenodd" d="M44.0613 147.987C41.4437 147.596 38.8391 147.204 36.6458 146.704C33.7823 149.543 30.8383 152.43 27.9922 155.406C30.2051 156.126 32.5399 156.752 34.9508 157.433C37.836 154.343 40.8736 151.22 44.0613 147.987Z" fill="#1A1A1A"/>
<path fill-rule="evenodd" clip-rule="evenodd" d="M53.8608 149.857C50.8472 149.392 48.0794 148.868 45.4378 148.312C42.1391 151.658 39.0493 154.871 36.1641 157.916C38.588 158.608 41.2122 159.472 43.906 160.283C47.2895 156.71 50.4185 153.428 53.8608 149.855V149.857Z" fill="#1A1A1A"/>
<path fill-rule="evenodd" clip-rule="evenodd" d="M64.9255 152.179C61.4984 151.595 58.3151 150.935 55.21 150.305C51.8896 153.832 48.5865 157.228 45.2617 160.738C48.1078 161.664 51.1476 162.566 54.2613 163.475C57.782 159.641 61.4484 155.797 64.9255 152.179Z" fill="#1A1A1A"/>
<path fill-rule="evenodd" clip-rule="evenodd" d="M78.9244 154.207C74.9903 153.423 71.2238 152.837 67.7206 152.326C64.126 155.905 60.4791 159.822 56.9062 163.646C60.2202 164.436 63.7974 165.286 67.3659 166.464C71.2956 162.153 75.036 158.149 78.9266 154.207H78.9244Z" fill="#1A1A1A"/>
<path fill-rule="evenodd" clip-rule="evenodd" d="M93.3178 156.751C88.8854 155.888 84.5205 154.912 80.6909 154.157C76.7655 158.275 72.7923 162.334 69.041 166.543C72.8206 167.697 76.8199 168.956 81.1848 169.986C85.1842 165.544 89.2161 161.233 93.3178 156.754V156.751Z" fill="#1A1A1A"/>
<path fill-rule="evenodd" clip-rule="evenodd" d="M110.427 159.803C105.294 158.911 100.202 158.138 95.8044 156.873C91.6636 161.434 87.4314 166.035 83.5039 170.514C87.8688 171.776 92.4535 173.059 97.3079 174.28C101.747 169.305 105.996 164.596 110.429 159.803H110.427Z" fill="#1A1A1A"/>
<path fill-rule="evenodd" clip-rule="evenodd" d="M129.812 163.897C123.78 162.653 118.234 161.54 113.02 160.359C108.544 165.271 104.023 170.179 99.6055 175.297C105.045 176.801 110.063 178.677 115.82 180.146C120.577 174.682 125.279 169.242 129.812 163.897Z" fill="#1A1A1A"/>
<path fill-rule="evenodd" clip-rule="evenodd" d="M152.217 169.019C145.163 167.639 138.911 166.334 132.608 164.964C127.903 170.359 123.21 175.851 118.51 181.22C124.396 183.163 130.63 185.065 137.17 187.013C142.345 180.713 147.262 174.791 152.217 169.019Z" fill="#1A1A1A"/>
<path fill-rule="evenodd" clip-rule="evenodd" d="M385.424 137.834C380.983 134.289 376.635 130.712 372.662 127.447C366.243 131.076 359.852 134.456 353.398 138.288C357 142.043 360.566 145.979 364.876 150.006C371.835 145.899 378.789 141.816 385.421 137.834H385.424Z" fill="#1A1A1A"/>
<path fill-rule="evenodd" clip-rule="evenodd" d="M167.579 130.559C165.813 128.782 164.087 127.129 162.292 125.713C159.792 127.462 157.187 129.325 154.615 131.097C156.212 132.779 157.72 134.586 159.341 136.618C162.109 134.551 164.87 132.5 167.582 130.559H167.579Z" fill="#1A1A1A"/>
<path fill-rule="evenodd" clip-rule="evenodd" d="M97.6584 64.9223C96.9708 63.8749 96.3398 62.7842 95.7589 61.6914C93.509 63.5503 91.1067 65.5628 88.748 67.5234C89.1158 68.7807 89.6358 69.9298 90.2233 71.1611C92.6908 69.0901 95.1996 66.9846 97.6563 64.9223H97.6584Z" fill="#1A1A1A"/>
<path fill-rule="evenodd" clip-rule="evenodd" d="M462.912 246.62C457.362 242.281 452.126 238.124 447.041 234.465C440.42 236.499 433.923 238.908 427.105 241.206C432.049 245.205 436.915 249.526 441.915 254.183C449.026 251.513 456.3 249.106 462.915 246.618L462.912 246.62Z" fill="#1A1A1A"/>
<path fill-rule="evenodd" clip-rule="evenodd" d="M113.504 78.9968C112.958 78.3974 112.527 77.8131 112.098 77.2505C110.636 78.3108 109.165 79.3517 107.744 80.3904C108.073 81.0332 108.412 81.7884 108.793 82.4203C110.366 81.2842 111.881 80.1567 113.504 78.9947V78.9968Z" fill="#1A1A1A"/>
<path fill-rule="evenodd" clip-rule="evenodd" d="M163.888 51.5727C162.57 51.0122 161.321 50.5167 160.085 50.0601C158.22 51.326 156.357 52.6352 154.451 54.0159C155.491 54.6412 156.634 55.1974 157.933 55.9158C159.874 54.4032 161.882 52.9901 163.888 51.5749V51.5727Z" fill="#1A1A1A"/>
<path fill-rule="evenodd" clip-rule="evenodd" d="M444.335 102.926C439.109 100.779 434.25 98.9055 429.633 97.1396C423.662 99.6109 418.009 101.978 412.6 104.489C416.771 106.568 421.164 108.698 426.079 111.316C432.39 108.379 438.521 105.467 444.335 102.926Z" fill="#1A1A1A"/>
<path fill-rule="evenodd" clip-rule="evenodd" d="M142.514 48.2269C141.718 47.8525 141.122 47.3613 140.491 46.9912C138.972 47.9823 137.525 49.1011 136.062 50.1809C136.598 50.6549 137.092 51.2153 137.738 51.6481C139.194 50.538 140.852 49.363 142.514 48.2269Z" fill="#1A1A1A"/>
<path fill-rule="evenodd" clip-rule="evenodd" d="M109.288 40.0513C108.866 39.744 108.405 39.5081 107.989 39.2246C106.894 40.0707 105.696 40.945 104.645 41.7522C105.008 42.0811 105.323 42.4143 105.648 42.7952C106.847 41.8928 108.091 40.9731 109.288 40.0513Z" fill="#1A1A1A"/>
<path fill-rule="evenodd" clip-rule="evenodd" d="M29.0655 123.378C28.8871 122.924 28.6521 122.469 28.5303 122.032C27.6555 122.629 26.8396 123.311 25.9648 123.934C26.0323 124.462 26.1541 124.962 26.276 125.462C27.2617 124.763 28.1386 124.071 29.0655 123.378Z" fill="#1A1A1A"/>
<path fill-rule="evenodd" clip-rule="evenodd" d="M466.927 173.371C463.206 171.594 460.195 169.917 457.018 168.312C452.353 169.629 447.886 170.822 443.434 172.112C446.164 173.758 449.256 175.678 452.529 177.496C457.405 176.171 462.181 174.73 466.927 173.371Z" fill="#1A1A1A"/>
<path fill-rule="evenodd" clip-rule="evenodd" d="M193.112 42.9771C191.807 42.5919 190.473 42.3279 189.344 41.9341C187.527 43.1178 185.608 44.3469 183.889 45.4874C184.983 45.9678 186.008 46.3768 187.218 46.8269C189.026 45.5869 191.141 44.2193 193.112 42.9771Z" fill="#1A1A1A"/>
<path fill-rule="evenodd" clip-rule="evenodd" d="M145.002 13.7154C144.173 13.5618 143.344 13.4298 142.53 13.3887C141.164 14.2543 139.862 15.2432 138.555 16.1911C139.329 16.3252 140.108 16.4724 140.889 16.6433C142.286 15.6219 143.644 14.6503 145.002 13.7154Z" fill="#1A1A1A"/>
<path fill-rule="evenodd" clip-rule="evenodd" d="M124.361 49.5623C123.608 49.3242 122.866 49.1554 122.172 48.9434C121.003 49.783 119.68 50.7049 118.453 51.5358C119.152 51.7825 119.796 52.0119 120.498 52.2629C121.821 51.3454 123.042 50.482 124.363 49.5623H124.361Z" fill="#1A1A1A"/>
<path fill-rule="evenodd" clip-rule="evenodd" d="M106.621 68.8692C105.868 68.6225 105.163 68.339 104.471 68.1572C103.37 68.9038 102.16 69.7045 100.998 70.4489C101.697 70.6956 102.395 70.9553 103.046 71.2496C104.201 70.4641 105.413 69.6742 106.621 68.8692Z" fill="#1A1A1A"/>
<path fill-rule="evenodd" clip-rule="evenodd" d="M223.751 79.1959C222.117 78.7696 220.55 78.3346 219.044 77.9321C217.062 78.999 215.132 80.0139 213.041 81.1305C214.588 81.4833 216.107 81.9658 217.624 82.4138C219.595 81.3145 221.753 80.2238 223.751 79.1959Z" fill="#1A1A1A"/>
<path fill-rule="evenodd" clip-rule="evenodd" d="M88.3908 85.7678C87.6923 85.5233 86.9873 85.2009 86.3454 84.9434C85.264 85.664 84.2892 86.324 83.2578 87.0273C83.8453 87.3 84.4372 87.6072 85.0856 87.9362C86.1692 87.1874 87.2572 86.5339 88.3908 85.7657V85.7678Z" fill="#1A1A1A"/>
<path fill-rule="evenodd" clip-rule="evenodd" d="M97.2555 57.1231C96.6441 56.9651 96.0457 56.9045 95.4386 56.792C94.5487 57.3979 93.6152 58.0752 92.7188 58.6444C93.2192 58.7526 93.8285 58.9084 94.3376 59.0815C95.3255 58.3998 96.2633 57.742 97.2555 57.1253V57.1231Z" fill="#1A1A1A"/>
<path fill-rule="evenodd" clip-rule="evenodd" d="M546.001 213.243C541.035 211.749 535.785 209.977 530.478 208.438C525.563 209.49 520.253 210.239 515.262 211.159C520.034 212.617 525.201 214.327 529.975 216.021C535.552 215.084 540.711 214.221 546.001 213.245V213.243Z" fill="#1A1A1A"/>
<path fill-rule="evenodd" clip-rule="evenodd" d="M164.4 22.6377C163.305 22.681 162.32 22.6918 161.334 22.7005C160.179 23.434 158.973 24.2001 157.729 25.0203C158.71 24.9748 159.609 25.057 160.599 25.0484C161.843 24.2304 163.09 23.4038 164.398 22.6377H164.4Z" fill="#1A1A1A"/>
<path fill-rule="evenodd" clip-rule="evenodd" d="M5.72089 143.389C5.3858 143.14 5.05071 142.883 4.83094 142.645C4.20646 143.043 3.52322 143.497 2.95312 143.861C3.17289 144.127 3.44924 144.354 3.72558 144.64C4.40882 144.179 5.03766 143.794 5.72089 143.391V143.389Z" fill="#1A1A1A"/>
<path fill-rule="evenodd" clip-rule="evenodd" d="M300.767 116.865C298.295 116.263 295.647 115.904 293.125 115.358C290.641 116.222 288.38 116.977 286.158 117.864C288.447 118.284 290.926 118.875 293.513 119.466C295.93 118.574 298.413 117.717 300.765 116.865H300.767Z" fill="#1A1A1A"/>
<path fill-rule="evenodd" clip-rule="evenodd" d="M292.328 161.699C290.098 160.307 287.892 158.922 285.672 157.717C282.565 158.909 279.397 160.311 276.207 161.664C278.272 163.038 280.324 164.378 282.398 165.94C285.855 164.373 289.13 163.06 292.328 161.696V161.699Z" fill="#1A1A1A"/>
<path fill-rule="evenodd" clip-rule="evenodd" d="M238.325 106.335C236.315 105.188 234.461 104.164 232.74 103.167C230.094 104.632 227.337 106.187 224.582 107.771C226.314 108.834 227.861 110.111 229.791 111.208C232.72 109.565 235.516 107.932 238.325 106.335Z" fill="#1A1A1A"/>
</g>
<defs>
<clipPath id="clip0_129_4953">
<rect width="566" height="308" fill="white" transform="translate(-20)"/>
</clipPath>
</defs>
</svg>
