<svg width="633" height="331" viewBox="0 0 633 331" fill="none" xmlns="http://www.w3.org/2000/svg">
<g clip-path="url(#clip0_129_4778)">
<path fill-rule="evenodd" clip-rule="evenodd" d="M547.548 5.96303C547.015 5.20176 546.246 5.47859 546.725 2.18439C548.518 -3.2109 546.235 3.19756 546.447 2.28128C546.712 3.87301 547.69 3.09791 548.289 3.01209C548.105 3.72629 547.857 4.87788 547.548 5.96303Z" fill="#1A1A1A"/>
<path fill-rule="evenodd" clip-rule="evenodd" d="M598.71 341.661C605.884 335.266 612.203 329.187 618.337 323.338C625.509 332.935 632.867 343.172 640.041 353.271C634.564 360.261 628.519 367.408 622.301 375.306C614.396 363.893 606.826 352.828 598.71 341.661Z" fill="#1A1A1A"/>
<path fill-rule="evenodd" clip-rule="evenodd" d="M621.309 320.648C626.967 315.701 632.39 310.679 637.469 306.015C643.826 314.422 650.421 322.588 657.102 331.3C652.45 337.033 647.706 343.084 642.65 349.891C635.529 340.089 628.33 329.977 621.306 320.648H621.309Z" fill="#1A1A1A"/>
<path fill-rule="evenodd" clip-rule="evenodd" d="M506.991 350.874C518.148 343.02 528.583 335.499 538.241 328.606C546.34 340.645 554.362 352.64 562.35 365.376C552.974 374.044 543.377 383.694 532.41 393.064C524.001 378.307 515.26 364.532 506.991 350.874Z" fill="#1A1A1A"/>
<path fill-rule="evenodd" clip-rule="evenodd" d="M542.862 325.392C552.115 320.044 560.304 314.145 568.267 308.652C575.614 318.474 583.203 328.772 590.539 339.515C583.069 346.505 575.407 353.639 566.82 361.822C558.637 349.005 550.989 336.93 542.862 325.392Z" fill="#1A1A1A"/>
<path fill-rule="evenodd" clip-rule="evenodd" d="M571.892 305.732C579.563 300.799 586.556 295.8 593.292 291.6C600.034 300.007 607.209 309.538 614.057 319.26C607.785 324.761 601.102 330.128 593.889 336.29C586.829 326.026 579.289 315.825 571.892 305.732Z" fill="#1A1A1A"/>
<path fill-rule="evenodd" clip-rule="evenodd" d="M596.503 289.552C602.919 285.751 608.716 281.704 614.466 278.398C620.86 285.903 626.989 293.707 633.52 302.092C628.386 306.56 622.736 311.116 617.067 316.179C610.288 307.302 603.262 297.898 596.503 289.552Z" fill="#1A1A1A"/>
<path fill-rule="evenodd" clip-rule="evenodd" d="M230.356 248.443C253.244 243.632 274.276 238.89 294.085 234.378C301.719 246.672 309.512 258.412 316.809 271.01C297.594 276.35 276.395 283.232 252.921 290.241C245.284 275.733 237.881 262.008 230.353 248.443H230.356Z" fill="#1A1A1A"/>
<path fill-rule="evenodd" clip-rule="evenodd" d="M362.354 234.561C378.333 231.023 392.392 227.535 406.383 224.897C413.245 234.176 420.718 243.787 428.168 253.864C414.516 258.005 400.188 262.451 384.788 267.37C377.614 256.319 369.805 244.969 362.354 234.558V234.561Z" fill="#1A1A1A"/>
<path fill-rule="evenodd" clip-rule="evenodd" d="M381.155 162.34C393.881 161.831 405.788 161.061 417.276 160.452C423.74 167.5 430.067 174.374 436.148 181.516C425.005 182.526 413.171 183.811 400.581 185.649C394.299 177.599 388.028 169.803 381.155 162.34Z" fill="#1A1A1A"/>
<path fill-rule="evenodd" clip-rule="evenodd" d="M428.108 332.288C442.726 325.124 456.222 318.469 468.619 311.872C476.607 323.983 485.117 336.983 492.801 350.395C480.724 358.749 467.733 367.323 453.449 376.557C445.196 361.089 436.581 346.719 428.108 332.288Z" fill="#1A1A1A"/>
<path fill-rule="evenodd" clip-rule="evenodd" d="M475.406 310.034C487.483 303.866 498.489 298.474 508.924 293.322C516.118 303.532 523.707 314.095 531.336 324.839C521.316 331.654 510.346 339.167 498.793 347.07C490.866 333.738 483.221 321.946 475.406 310.031V310.034Z" fill="#1A1A1A"/>
<path fill-rule="evenodd" clip-rule="evenodd" d="M515.36 289.565C525.004 285.125 534.109 280.796 542.733 276.488C549.615 285.294 556.527 294.587 563.447 304.135C555.284 309.779 546.741 315.172 537.415 320.556C530.188 310.347 522.715 299.899 515.36 289.568V289.565Z" fill="#1A1A1A"/>
<path fill-rule="evenodd" clip-rule="evenodd" d="M547.72 273.967C555.557 269.543 563.06 266.279 570.505 263.046C576.982 271.279 583.63 279.691 590.461 288.193C583.421 292.137 576.06 296.716 568.64 301.801C561.767 292.392 554.587 282.961 547.72 273.967Z" fill="#1A1A1A"/>
<path fill-rule="evenodd" clip-rule="evenodd" d="M573.762 262.141C580.376 258.943 586.907 255.937 593.264 253.277C598.894 260.369 604.85 267.436 610.729 274.506C604.956 278.075 598.844 281.917 592.645 286.036C586.268 277.942 579.83 269.842 573.765 262.141H573.762Z" fill="#1A1A1A"/>
<path fill-rule="evenodd" clip-rule="evenodd" d="M615.78 242.688C621.034 240.784 625.621 238.649 630.178 236.548C635.081 242.063 640.179 247.854 644.875 253.31C640.736 255.976 636.711 258.846 631.772 261.374C626.594 255.154 621.243 248.87 615.78 242.686V242.688Z" fill="#1A1A1A"/>
<path fill-rule="evenodd" clip-rule="evenodd" d="M632.6 235.563C637.026 233.47 641.023 231.386 644.956 229.844C649.521 234.791 653.746 239.607 658.471 244.956C654.87 247.295 651.163 249.554 647.33 252.142C642.311 246.525 637.595 240.997 632.6 235.563Z" fill="#1A1A1A"/>
<path fill-rule="evenodd" clip-rule="evenodd" d="M443.314 195.645C453.966 194.183 464.117 192.935 473.97 191.396C480.116 198.756 486.306 205.854 492.822 213.242C483.432 215.219 473.437 217.085 462.79 219.709C456.252 211.476 449.696 203.551 443.311 195.645H443.314Z" fill="#1A1A1A"/>
<path fill-rule="evenodd" clip-rule="evenodd" d="M449.031 126.179C458.218 126.658 466.942 127.078 475.25 127.471C480.373 132.543 485.443 137.686 490.672 142.597C482.361 142.647 474.044 142.531 465.097 142.409C459.907 136.917 454.414 131.546 449.034 126.179H449.031Z" fill="#1A1A1A"/>
<path fill-rule="evenodd" clip-rule="evenodd" d="M270.648 337.619C294.027 328.08 315.466 319.645 335.868 311.847C343.817 326.508 352.326 342.262 360.086 359.14C340.057 369.587 319.078 380.195 295.624 391.545C287.695 373.205 279.13 355.034 270.651 337.619H270.648Z" fill="#1A1A1A"/>
<path fill-rule="evenodd" clip-rule="evenodd" d="M403.014 285.643C417.806 280.156 431.887 275.276 444.942 270.473C452.545 281.327 460.294 292.835 467.83 304.47C455.352 310.842 441.608 317.314 427.564 323.861C419.381 311.044 411.214 297.851 403.017 285.646L403.014 285.643Z" fill="#1A1A1A"/>
<path fill-rule="evenodd" clip-rule="evenodd" d="M492.779 254.866C502.999 251.414 512.325 248.261 521.205 245.014C527.644 252.925 534.38 261.521 540.844 270.357C532.387 274.432 523.131 278.756 513.786 283.224C507.03 273.407 499.752 263.788 492.776 254.866H492.779Z" fill="#1A1A1A"/>
<path fill-rule="evenodd" clip-rule="evenodd" d="M526.278 243.444C534.742 240.61 542.672 238.104 550.273 235.815C556.639 243.314 562.818 250.927 569.184 258.498C561.954 261.579 554.587 264.674 546.619 268.524C539.715 259.683 533.101 251.168 526.278 243.444Z" fill="#1A1A1A"/>
<path fill-rule="evenodd" clip-rule="evenodd" d="M553.547 234.981C560.593 232.714 567.429 230.483 574.138 228.216C579.726 234.826 585.318 241.323 591.031 248.064C584.852 250.824 578.327 253.922 571.688 256.906C565.473 249.429 559.335 242.04 553.549 234.979L553.547 234.981Z" fill="#1A1A1A"/>
<path fill-rule="evenodd" clip-rule="evenodd" d="M578.57 226.873C584.582 225.066 590.471 223.327 595.851 221.597C601.47 227.845 606.804 233.658 612.066 239.906C607.022 241.891 601.592 244.142 595.647 246.976C590.039 239.865 584.131 233.202 578.57 226.873Z" fill="#1A1A1A"/>
<path fill-rule="evenodd" clip-rule="evenodd" d="M598.486 221.038C603.952 219.535 608.849 217.813 613.771 216.401C618.593 221.597 623.51 227.184 628.092 232.596C623.646 234.536 619.075 236.693 613.769 238.489C608.841 232.872 603.609 226.791 598.489 221.038H598.486Z" fill="#1A1A1A"/>
<path fill-rule="evenodd" clip-rule="evenodd" d="M616.392 215.56C621.102 214.295 625.536 213.198 629.723 211.978C634.14 216.786 638.686 221.517 642.881 226.226C639.048 227.679 634.848 229.393 630.679 231.449C626.016 225.999 621.216 220.814 616.392 215.56Z" fill="#1A1A1A"/>
<path fill-rule="evenodd" clip-rule="evenodd" d="M631.652 211.374C635.643 210.278 639.461 209.115 643.115 207.842C647.199 212.229 651.321 216.603 655.17 220.869C651.954 222.408 648.403 223.936 644.757 225.367C640.395 220.761 636.083 216.025 631.649 211.374H631.652Z" fill="#1A1A1A"/>
<path fill-rule="evenodd" clip-rule="evenodd" d="M511.773 187.523C519.756 186.709 527.44 186.092 534.809 185.286C540.258 191.141 545.816 197.137 551.359 203.05C544.249 204.24 537.15 205.666 529.179 207.277C523.365 200.564 517.612 193.887 511.773 187.523Z" fill="#1A1A1A"/>
<path fill-rule="evenodd" clip-rule="evenodd" d="M538.156 184.755C545.104 183.883 551.894 183.293 557.992 182.482C563.332 187.952 568.614 193.547 573.572 199.025C567.535 200.193 561.306 201.372 554.578 202.446C549.237 196.708 543.607 190.59 538.156 184.755Z" fill="#1A1A1A"/>
<path fill-rule="evenodd" clip-rule="evenodd" d="M561.018 182.147C567.356 181.538 573.039 180.998 578.553 180.47C583.327 185.309 588.335 190.496 593.102 195.465C587.8 196.462 582.318 197.469 576.546 198.69C571.523 193.038 566.225 187.457 561.018 182.147Z" fill="#1A1A1A"/>
<path fill-rule="evenodd" clip-rule="evenodd" d="M581.153 180.171C586.549 179.656 591.672 179.343 596.564 178.892C601.043 183.404 605.806 188.395 610.129 192.835C605.472 193.619 600.588 194.2 595.585 194.986C591.017 190.228 585.925 185.04 581.151 180.171H581.153Z" fill="#1A1A1A"/>
<path fill-rule="evenodd" clip-rule="evenodd" d="M598.959 178.717C603.681 178.194 608.093 177.555 612.522 177.38C616.683 181.513 620.945 185.815 625.15 190.261C621.181 190.945 616.956 191.728 612.399 192.572C608.015 187.9 603.366 183.221 598.959 178.717Z" fill="#1A1A1A"/>
<path fill-rule="evenodd" clip-rule="evenodd" d="M614.572 177.308C618.697 176.915 622.501 176.553 626.361 176.298C630.422 180.215 634.503 184.245 638.031 187.988C634.648 188.664 631.024 189.361 627.022 189.862C622.95 185.524 618.897 181.427 614.574 177.308H614.572Z" fill="#1A1A1A"/>
<path fill-rule="evenodd" clip-rule="evenodd" d="M628.099 176.168C631.797 175.791 635.401 175.55 638.629 175.202C642.361 178.828 646.034 182.568 649.666 186.18C646.625 186.892 643.138 187.255 639.864 187.736C636.034 183.952 632.241 180.085 628.099 176.171V176.168Z" fill="#1A1A1A"/>
<path fill-rule="evenodd" clip-rule="evenodd" d="M633.756 153.87C628.12 153.382 622.418 153.396 616.211 153.114C615.046 153.006 613.73 152.909 612.37 152.497C618.853 153.114 624.792 152.975 630.523 153.319C631.872 153.82 632.9 153.64 633.756 153.872V153.87Z" fill="#1A1A1A"/>
<path fill-rule="evenodd" clip-rule="evenodd" d="M520.789 165.565C527.977 165.108 535.11 164.854 541.551 164.438C546.713 169.596 551.813 174.841 556.791 180.181C550.422 180.821 543.636 181.438 536.877 182.222C531.548 176.475 526.035 170.772 520.792 165.562L520.789 165.565Z" fill="#1A1A1A"/>
<path fill-rule="evenodd" clip-rule="evenodd" d="M544.684 164.259C551.117 164.156 557.223 164.026 562.957 163.78C567.608 168.547 572.726 173.538 577.232 178.296C571.809 178.828 565.916 179.24 559.832 179.736C554.904 174.54 549.712 169.289 544.684 164.261V164.259Z" fill="#1A1A1A"/>
<path fill-rule="evenodd" clip-rule="evenodd" d="M565.718 163.758C571.398 163.619 576.735 163.628 582 163.503C586.471 167.752 590.93 172.273 595.262 176.929C590.317 177.197 585.203 177.554 579.871 178.177C575.434 173.441 570.386 168.428 565.715 163.755L565.718 163.758Z" fill="#1A1A1A"/>
<path fill-rule="evenodd" clip-rule="evenodd" d="M584.454 163.351C589.468 163.248 594.143 163.337 598.68 163.19C602.97 167.295 607.142 171.387 611.197 175.448C606.925 175.636 602.454 176.173 597.666 176.691C593.301 172.245 588.844 167.652 584.454 163.351Z" fill="#1A1A1A"/>
<path fill-rule="evenodd" clip-rule="evenodd" d="M600.867 163.088C605.363 163.174 609.276 162.963 613.376 163.002C617.417 166.897 621.347 170.645 625.154 174.46C621.372 174.8 617.425 175.121 613.245 175.381C609.192 171.248 605.07 167.34 600.867 163.088Z" fill="#1A1A1A"/>
<path fill-rule="evenodd" clip-rule="evenodd" d="M615.252 162.864C619.265 162.819 622.902 162.805 626.534 162.675C630.258 166.263 633.859 169.809 637.477 173.427C634.232 174.053 630.712 174.211 627.027 174.465C623.075 170.548 619.365 166.764 615.249 162.864H615.252Z" fill="#1A1A1A"/>
<path fill-rule="evenodd" clip-rule="evenodd" d="M628.23 162.717C631.619 162.717 635.064 162.869 638.002 162.789C641.402 165.964 644.886 169.363 648.328 172.619C645.371 172.793 642.327 173.04 639.114 173.419C635.638 169.823 631.884 166.299 628.23 162.717Z" fill="#1A1A1A"/>
<path fill-rule="evenodd" clip-rule="evenodd" d="M502.779 146.437C510.341 146.517 517.637 146.625 524.455 146.794C529.43 151.771 534.391 156.558 539.291 161.493C532.585 161.718 525.531 162.053 518.449 162.357C513.139 157.003 507.813 151.575 502.779 146.44V146.437Z" fill="#1A1A1A"/>
<path fill-rule="evenodd" clip-rule="evenodd" d="M527.636 147.018C534.292 147.04 540.733 147.331 546.726 147.527C551.436 152.098 556.18 156.668 560.748 161.208C554.92 161.15 548.674 161.244 542.381 161.535C537.57 156.485 532.653 151.755 527.636 147.018Z" fill="#1A1A1A"/>
<path fill-rule="evenodd" clip-rule="evenodd" d="M549.756 147.577C555.657 147.693 561.371 147.926 566.767 148.167C571.067 152.294 575.446 156.552 579.83 161.028C574.66 161.064 569.239 161.166 563.648 161.252C559.091 156.646 554.347 151.99 549.759 147.577H549.756Z" fill="#1A1A1A"/>
<path fill-rule="evenodd" clip-rule="evenodd" d="M569.244 148.195C574.612 148.499 579.248 148.593 584.145 148.87C588.493 152.904 592.439 156.776 596.617 160.807C591.951 160.829 587.205 160.779 582.121 160.879C578.013 156.594 573.626 152.336 569.244 148.195Z" fill="#1A1A1A"/>
<path fill-rule="evenodd" clip-rule="evenodd" d="M586.656 149.081C591.115 149.166 595.483 149.291 599.828 149.546C603.853 153.418 607.705 157.095 611.439 160.713C607.546 160.909 603.357 160.937 598.797 160.837C594.764 156.79 590.728 152.998 586.656 149.081Z" fill="#1A1A1A"/>
<path fill-rule="evenodd" clip-rule="evenodd" d="M601.963 149.612C606.213 149.902 609.951 150.063 613.538 150.207C617.337 153.7 621.222 157.224 624.703 160.64C621.152 160.699 617.44 160.815 613.368 160.712C609.63 157.108 605.845 153.44 601.963 149.612Z" fill="#1A1A1A"/>
<path fill-rule="evenodd" clip-rule="evenodd" d="M615.774 150.628C619.553 150.941 622.898 151.115 626.307 151.317C629.782 154.6 633.417 157.986 636.775 161.374C633.567 161.128 630.192 161.084 626.669 160.94C623.177 157.662 619.704 154.387 615.774 150.631V150.628Z" fill="#1A1A1A"/>
<path fill-rule="evenodd" clip-rule="evenodd" d="M511.61 131.054C518.531 131.447 525.081 131.715 531.413 132.23C536.107 136.698 540.639 141.022 545.221 145.678C538.972 145.258 532.723 145.213 525.95 145.017C521.349 140.352 516.543 135.696 511.613 131.054H511.61Z" fill="#1A1A1A"/>
<path fill-rule="evenodd" clip-rule="evenodd" d="M534.584 132.676C540.782 132.958 546.479 133.49 552.227 134.093C556.594 138.104 560.825 142.193 565.156 146.356C559.574 145.891 554.139 145.877 548.102 145.689C543.553 141.249 538.982 136.731 534.584 132.676Z" fill="#1A1A1A"/>
<path fill-rule="evenodd" clip-rule="evenodd" d="M554.88 134.317C560.337 134.738 565.396 135.275 570.519 135.829C574.666 139.577 578.671 143.48 582.844 147.395C577.905 146.893 573.055 146.791 567.631 146.392C563.565 142.47 559.242 138.423 554.88 134.317Z" fill="#1A1A1A"/>
<path fill-rule="evenodd" clip-rule="evenodd" d="M573.013 136.009C577.841 136.438 582.386 136.698 586.899 137.127C590.795 140.759 594.578 144.349 598.443 148.031C594.101 147.807 589.817 147.616 585.009 147.4C580.901 143.536 577.094 139.779 573.013 136.009Z" fill="#1A1A1A"/>
<path fill-rule="evenodd" clip-rule="evenodd" d="M589.143 137.398C593.218 137.667 597.276 138.052 601.451 138.641C605.116 141.983 608.787 145.465 612.352 148.798C608.555 148.615 604.62 148.239 600.573 148.136C596.629 144.452 592.836 140.958 589.143 137.398Z" fill="#1A1A1A"/>
<path fill-rule="evenodd" clip-rule="evenodd" d="M613.922 141.241C617.507 141.684 620.941 142.091 624.093 142.367C627.332 145.338 630.788 148.485 634.121 151.611C630.952 151.328 627.688 151.253 624.433 151.051C621.124 147.81 617.549 144.535 613.922 141.243V141.241Z" fill="#1A1A1A"/>
<path fill-rule="evenodd" clip-rule="evenodd" d="M626.028 142.534C629.1 142.802 632.029 142.999 634.872 143.356C637.849 146.218 640.85 148.892 643.713 151.688C641.199 151.652 638.328 151.447 635.588 151.362C632.528 148.513 629.208 145.41 626.028 142.534Z" fill="#1A1A1A"/>
<path fill-rule="evenodd" clip-rule="evenodd" d="M519.097 118.383C525.323 119.117 531.327 119.823 537.378 120.543C541.665 124.523 545.848 128.382 550.252 132.429C544.315 131.66 538.744 131.325 532.392 130.641C528.052 126.45 523.542 122.502 519.097 118.383Z" fill="#1A1A1A"/>
<path fill-rule="evenodd" clip-rule="evenodd" d="M540.16 120.833C545.703 121.437 551.272 122.22 556.565 122.882C560.492 126.58 564.584 130.315 568.684 134.143C563.499 133.57 558.494 133.169 552.9 132.704C548.504 128.593 544.307 124.77 540.16 120.831V120.833Z" fill="#1A1A1A"/>
<path fill-rule="evenodd" clip-rule="evenodd" d="M559.099 123.178C564.021 123.737 568.848 124.399 573.798 125.141C577.569 128.673 581.173 131.906 585.111 135.525C580.604 135.095 576.003 134.733 571.162 134.412C567.14 130.561 562.981 126.738 559.099 123.178Z" fill="#1A1A1A"/>
<path fill-rule="evenodd" clip-rule="evenodd" d="M575.952 125.476C580.323 126.143 584.69 126.719 588.837 127.278C592.441 130.577 596.209 133.888 599.791 137.138C595.677 136.717 591.627 136.274 587.357 135.793C583.408 132.225 579.67 128.847 575.952 125.476Z" fill="#1A1A1A"/>
<path fill-rule="evenodd" clip-rule="evenodd" d="M602.205 130.118C605.965 130.722 609.446 131.137 612.716 131.558C616.094 134.644 619.503 137.684 622.705 140.792C619.489 140.458 616.197 140.125 612.546 139.66C609.148 136.507 605.765 133.412 602.205 130.121V130.118Z" fill="#1A1A1A"/>
<path fill-rule="evenodd" clip-rule="evenodd" d="M615.141 132.485C618.468 132.928 621.434 133.393 624.458 133.952C627.602 136.748 630.687 139.516 633.99 142.495C631.153 142.124 628.084 141.891 625.016 141.636C621.802 138.569 618.535 135.533 615.138 132.482L615.141 132.485Z" fill="#1A1A1A"/>
<path fill-rule="evenodd" clip-rule="evenodd" d="M505.739 103.676C512.303 104.703 518.502 105.619 524.461 106.646C528.742 110.201 532.803 113.855 537.195 117.858C531.189 116.941 525.124 116.288 518.928 115.488C514.511 111.413 510.149 107.546 505.742 103.673L505.739 103.676Z" fill="#1A1A1A"/>
<path fill-rule="evenodd" clip-rule="evenodd" d="M527.289 106.942C533.156 107.95 538.758 108.736 544.255 109.686C548.062 113.21 552.05 116.609 556.092 120.302C550.76 119.532 545.255 118.857 539.689 118.013C535.612 114.314 531.537 110.71 527.289 106.942Z" fill="#1A1A1A"/>
<path fill-rule="evenodd" clip-rule="evenodd" d="M512.093 93.8457C518.06 94.8949 523.78 96.0464 529.371 97.0873C533.393 100.639 537.325 104.047 541.264 107.465C535.988 106.563 530.26 105.691 524.251 104.672C520.282 101.148 516.14 97.5053 512.09 93.8457H512.093Z" fill="#1A1A1A"/>
<path fill-rule="evenodd" clip-rule="evenodd" d="M447.185 97.5747C455.769 98.7567 463.763 99.8557 471.366 100.645C476.425 104.994 481.057 109.456 485.539 113.642C478.159 113.024 470.299 112.138 461.965 111.244C457.224 106.729 452.294 102.153 447.188 97.5775L447.185 97.5747Z" fill="#1A1A1A"/>
<path fill-rule="evenodd" clip-rule="evenodd" d="M630.389 191.7C634.249 191.105 637.794 190.435 641.178 189.724C645.403 194.003 649.361 198.114 653.057 202.009C649.952 202.895 646.59 203.999 643.14 205.038C638.806 200.467 634.798 196.268 630.389 191.697V191.7Z" fill="#1A1A1A"/>
<path fill-rule="evenodd" clip-rule="evenodd" d="M616.217 194.671C620.606 193.923 624.684 193.079 628.661 192.273C632.915 196.786 637.145 201.129 641.404 205.619C637.759 206.804 633.865 207.958 629.877 209.121C625.367 204.216 620.67 199.299 616.217 194.671Z" fill="#1A1A1A"/>
<path fill-rule="evenodd" clip-rule="evenodd" d="M598.287 197.264C603.326 196.262 608.151 195.512 612.638 194.859C617.242 199.438 621.914 204.448 626.49 209.34C622.245 210.35 617.663 211.438 613.092 212.944C608.059 207.429 603.267 202.308 598.284 197.264H598.287Z" fill="#1A1A1A"/>
<path fill-rule="evenodd" clip-rule="evenodd" d="M579.849 200.52C585.526 199.415 591.117 198.167 596.023 197.201C601.051 202.469 606.14 207.662 610.945 213.046C606.104 214.522 600.981 216.133 595.39 217.45C590.267 211.767 585.103 206.253 579.849 200.523V200.52Z" fill="#1A1A1A"/>
<path fill-rule="evenodd" clip-rule="evenodd" d="M557.934 204.423C564.509 203.282 571.031 202.294 576.664 200.675C581.968 206.51 587.389 212.396 592.42 218.126C586.829 219.74 580.956 221.381 574.738 222.942C569.052 216.578 563.609 210.555 557.931 204.423H557.934Z" fill="#1A1A1A"/>
<path fill-rule="evenodd" clip-rule="evenodd" d="M533.103 209.66C540.829 208.069 547.934 206.646 554.612 205.134C560.345 211.418 566.137 217.697 571.795 224.243C564.827 226.167 558.4 228.567 551.025 230.447C544.932 223.457 538.909 216.498 533.103 209.66Z" fill="#1A1A1A"/>
<path fill-rule="evenodd" clip-rule="evenodd" d="M504.404 216.213C513.44 214.447 521.448 212.778 529.522 211.025C535.548 217.927 541.56 224.952 547.58 231.82C540.041 234.306 532.056 236.74 523.677 239.231C517.049 231.173 510.75 223.596 504.404 216.213Z" fill="#1A1A1A"/>
<path fill-rule="evenodd" clip-rule="evenodd" d="M205.685 176.32C211.374 171.785 216.943 167.209 222.032 163.032C230.254 167.675 238.44 171.999 246.707 176.901C242.094 181.704 237.526 186.739 232.005 191.891C223.091 186.637 214.184 181.413 205.688 176.32H205.685Z" fill="#1A1A1A"/>
<path fill-rule="evenodd" clip-rule="evenodd" d="M484.726 167.013C486.989 164.74 489.199 162.625 491.499 160.815C494.701 163.052 498.038 165.435 501.332 167.702C499.286 169.853 497.355 172.165 495.278 174.764C491.733 172.12 488.196 169.496 484.723 167.013H484.726Z" fill="#1A1A1A"/>
<path fill-rule="evenodd" clip-rule="evenodd" d="M574.29 83.05C575.17 81.7101 575.979 80.315 576.723 78.917C579.605 81.2949 582.682 83.8694 585.703 86.3774C585.232 87.9857 584.566 89.4557 583.813 91.0308C580.653 88.3816 577.439 85.6881 574.292 83.05H574.29Z" fill="#1A1A1A"/>
<path fill-rule="evenodd" clip-rule="evenodd" d="M106.429 315.482C113.539 309.931 120.245 304.614 126.759 299.933C135.24 302.535 143.563 305.616 152.295 308.556C145.962 313.671 139.73 319.2 133.325 325.157C124.217 321.741 114.899 318.663 106.426 315.479L106.429 315.482Z" fill="#1A1A1A"/>
<path fill-rule="evenodd" clip-rule="evenodd" d="M553.993 101.054C554.693 100.287 555.245 99.5401 555.794 98.8203C557.667 100.177 559.551 101.508 561.371 102.837C560.95 103.659 560.515 104.625 560.028 105.434C558.013 103.98 556.073 102.538 553.993 101.052V101.054Z" fill="#1A1A1A"/>
<path fill-rule="evenodd" clip-rule="evenodd" d="M489.453 65.9726C491.142 65.2556 492.742 64.6217 494.325 64.0376C496.714 65.657 499.099 67.3318 501.541 69.0979C500.209 69.898 498.745 70.6094 497.082 71.5284C494.595 69.5934 492.023 67.7858 489.453 65.9754V65.9726Z" fill="#1A1A1A"/>
<path fill-rule="evenodd" clip-rule="evenodd" d="M130.226 131.665C136.921 128.919 143.145 126.522 149.059 124.263C156.707 127.425 163.948 130.453 170.877 133.664C165.534 136.324 159.907 139.048 153.61 142.398C145.528 138.641 137.673 134.915 130.226 131.665Z" fill="#1A1A1A"/>
<path fill-rule="evenodd" clip-rule="evenodd" d="M516.832 61.693C517.852 61.2141 518.616 60.5857 519.424 60.1123C521.369 61.3802 523.223 62.8113 525.096 64.1927C524.41 64.7989 523.777 65.5159 522.95 66.0695C521.085 64.6494 518.961 63.1463 516.832 61.693Z" fill="#1A1A1A"/>
<path fill-rule="evenodd" clip-rule="evenodd" d="M559.392 51.2347C559.933 50.8416 560.524 50.5399 561.056 50.1772C562.458 51.2596 563.994 52.378 565.34 53.4105C564.874 53.8313 564.47 54.2576 564.055 54.7448C562.519 53.5905 560.925 52.414 559.392 51.2347Z" fill="#1A1A1A"/>
<path fill-rule="evenodd" clip-rule="evenodd" d="M101.286 221.78C106.052 219.507 109.909 217.362 113.979 215.308C119.954 216.993 125.676 218.519 131.379 220.169C127.881 222.275 123.92 224.731 119.729 227.056C113.483 225.362 107.365 223.518 101.286 221.78Z" fill="#1A1A1A"/>
<path fill-rule="evenodd" clip-rule="evenodd" d="M452.021 54.9774C453.693 54.4846 455.402 54.1469 456.848 53.6431C459.176 55.1573 461.634 56.7296 463.836 58.1885C462.434 58.8031 461.121 59.3263 459.572 59.902C457.255 58.3158 454.546 56.5663 452.021 54.9774Z" fill="#1A1A1A"/>
<path fill-rule="evenodd" clip-rule="evenodd" d="M513.646 17.545C514.708 17.3484 515.77 17.1795 516.812 17.127C518.562 18.2342 520.229 19.4993 521.904 20.7118C520.912 20.8834 519.914 21.0717 518.914 21.2904C517.124 19.9838 515.385 18.7408 513.646 17.545Z" fill="#1A1A1A"/>
<path fill-rule="evenodd" clip-rule="evenodd" d="M540.085 63.4011C541.05 63.0966 542 62.8807 542.889 62.6094C544.386 63.6834 546.08 64.8627 547.652 65.9257C546.758 66.2413 545.933 66.5347 545.032 66.8558C543.338 65.6821 541.774 64.5776 540.082 63.4011H540.085Z" fill="#1A1A1A"/>
<path fill-rule="evenodd" clip-rule="evenodd" d="M562.81 88.0992C563.774 87.7836 564.677 87.421 565.563 87.1885C566.974 88.1435 568.523 89.1678 570.012 90.12C569.117 90.4356 568.222 90.7678 567.389 91.1443C565.909 90.1394 564.357 89.129 562.81 88.0992Z" fill="#1A1A1A"/>
<path fill-rule="evenodd" clip-rule="evenodd" d="M412.776 101.309C414.869 100.764 416.876 100.207 418.804 99.6924C421.343 101.057 423.816 102.355 426.494 103.784C424.512 104.235 422.567 104.852 420.624 105.425C418.099 104.019 415.334 102.624 412.776 101.309Z" fill="#1A1A1A"/>
<path fill-rule="evenodd" clip-rule="evenodd" d="M586.159 109.716C587.054 109.404 587.957 108.991 588.779 108.662C590.165 109.583 591.413 110.428 592.734 111.327C591.982 111.676 591.224 112.069 590.393 112.49C589.005 111.532 587.612 110.696 586.159 109.714V109.716Z" fill="#1A1A1A"/>
<path fill-rule="evenodd" clip-rule="evenodd" d="M574.804 73.073C575.587 72.8709 576.354 72.7934 577.131 72.6494C578.271 73.4245 579.467 74.291 580.615 75.019C579.974 75.1574 579.194 75.3567 578.542 75.5782C577.276 74.7062 576.075 73.8647 574.804 73.0757V73.073Z" fill="#1A1A1A"/>
<path fill-rule="evenodd" clip-rule="evenodd" d="M0.00056839 272.785C6.3609 270.875 13.0863 268.607 19.8842 266.639C26.1805 267.985 32.9812 268.942 39.375 270.119C33.2627 271.985 26.6432 274.172 20.5281 276.339C13.3846 275.14 6.77619 274.036 0.00056839 272.787V272.785Z" fill="#1A1A1A"/>
<path fill-rule="evenodd" clip-rule="evenodd" d="M488.798 28.9585C490.2 29.0139 491.463 29.0277 492.725 29.0388C494.205 29.9772 495.749 30.9572 497.344 32.0063C496.087 31.9482 494.936 32.0534 493.667 32.0423C492.073 30.9959 490.476 29.9385 488.801 28.9585H488.798Z" fill="#1A1A1A"/>
<path fill-rule="evenodd" clip-rule="evenodd" d="M314.123 149.496C317.289 148.726 320.681 148.266 323.911 147.569C327.094 148.673 329.99 149.639 332.836 150.774C329.904 151.311 326.729 152.067 323.415 152.823C320.319 151.682 317.139 150.586 314.126 149.496H314.123Z" fill="#1A1A1A"/>
<path fill-rule="evenodd" clip-rule="evenodd" d="M324.932 206.848C327.789 205.068 330.615 203.296 333.458 201.754C337.438 203.28 341.496 205.074 345.582 206.804C342.937 208.561 340.309 210.275 337.653 212.274C333.224 210.269 329.029 208.589 324.932 206.845V206.848Z" fill="#1A1A1A"/>
<path fill-rule="evenodd" clip-rule="evenodd" d="M394.107 136.025C396.683 134.558 399.057 133.249 401.262 131.973C404.651 133.847 408.182 135.837 411.711 137.863C409.492 139.223 407.511 140.856 405.038 142.259C401.287 140.158 397.705 138.068 394.107 136.025Z" fill="#1A1A1A"/>
</g>
<defs>
<clipPath id="clip0_129_4778">
<rect width="725" height="394" fill="white" transform="matrix(-1 0 0 1 725 0)"/>
</clipPath>
</defs>
</svg>
